<svg width="175" height="30" viewBox="0 0 175 30" fill="none" xmlns="http://www.w3.org/2000/svg">
<rect width="175" height="30" fill="#4062DE"/>
<path d="M6.35795 22H4.51136L9.85227 7.45455H11.6705L17.0114 22H15.1648L10.8182 9.75568H10.7045L6.35795 22ZM7.03977 16.3182H14.483V17.8807H7.03977V16.3182ZM28.8224 7.45455H30.5838V17.0852C30.5838 18.0795 30.3494 18.9673 29.8807 19.7486C29.4167 20.5251 28.7609 21.1383 27.9134 21.5881C27.0658 22.0331 26.0715 22.2557 24.9304 22.2557C23.7893 22.2557 22.795 22.0331 21.9474 21.5881C21.0999 21.1383 20.4418 20.5251 19.973 19.7486C19.509 18.9673 19.277 18.0795 19.277 17.0852V7.45455H21.0384V16.9432C21.0384 17.6534 21.1946 18.2855 21.5071 18.8395C21.8196 19.3887 22.2647 19.822 22.8423 20.1392C23.4247 20.4517 24.1207 20.608 24.9304 20.608C25.7401 20.608 26.4361 20.4517 27.0185 20.1392C27.6009 19.822 28.0459 19.3887 28.3537 18.8395C28.6662 18.2855 28.8224 17.6534 28.8224 16.9432V7.45455ZM45.8058 12H44.0444C43.9402 11.4934 43.7579 11.0483 43.4975 10.6648C43.2418 10.2812 42.9293 9.95928 42.56 9.69886C42.1954 9.43371 41.7906 9.23485 41.3455 9.10227C40.9005 8.9697 40.4364 8.90341 39.9535 8.90341C39.0728 8.90341 38.275 9.12595 37.56 9.57102C36.8498 10.0161 36.284 10.6719 35.8626 11.5384C35.4459 12.4048 35.2376 13.4678 35.2376 14.7273C35.2376 15.9867 35.4459 17.0497 35.8626 17.9162C36.284 18.7827 36.8498 19.4384 37.56 19.8835C38.275 20.3286 39.0728 20.5511 39.9535 20.5511C40.4364 20.5511 40.9005 20.4848 41.3455 20.3523C41.7906 20.2197 42.1954 20.0232 42.56 19.7628C42.9293 19.4976 43.2418 19.1733 43.4975 18.7898C43.7579 18.4015 43.9402 17.9564 44.0444 17.4545H45.8058C45.6732 18.1979 45.4317 18.8632 45.0813 19.4503C44.7309 20.0374 44.2953 20.5369 43.7745 20.9489C43.2537 21.3561 42.6689 21.6662 42.0202 21.8793C41.3763 22.0923 40.6874 22.1989 39.9535 22.1989C38.713 22.1989 37.6097 21.8958 36.6438 21.2898C35.6779 20.6837 34.918 19.822 34.364 18.7045C33.81 17.5871 33.533 16.2614 33.533 14.7273C33.533 13.1932 33.81 11.8674 34.364 10.75C34.918 9.63258 35.6779 8.77083 36.6438 8.16477C37.6097 7.55871 38.713 7.25568 39.9535 7.25568C40.6874 7.25568 41.3763 7.36222 42.0202 7.57528C42.6689 7.78835 43.2537 8.10085 43.7745 8.51278C44.2953 8.91998 44.7309 9.41714 45.0813 10.0043C45.4317 10.5866 45.6732 11.2519 45.8058 12ZM47.8565 9.01705V7.45455H58.7656V9.01705H54.1918V22H52.4304V9.01705H47.8565ZM63.2454 7.45455V22H61.484V7.45455H63.2454ZM79.0497 14.7273C79.0497 16.2614 78.7727 17.5871 78.2188 18.7045C77.6648 19.822 76.9048 20.6837 75.9389 21.2898C74.973 21.8958 73.8698 22.1989 72.6293 22.1989C71.3887 22.1989 70.2855 21.8958 69.3196 21.2898C68.3537 20.6837 67.5938 19.822 67.0398 18.7045C66.4858 17.5871 66.2088 16.2614 66.2088 14.7273C66.2088 13.1932 66.4858 11.8674 67.0398 10.75C67.5938 9.63258 68.3537 8.77083 69.3196 8.16477C70.2855 7.55871 71.3887 7.25568 72.6293 7.25568C73.8698 7.25568 74.973 7.55871 75.9389 8.16477C76.9048 8.77083 77.6648 9.63258 78.2188 10.75C78.7727 11.8674 79.0497 13.1932 79.0497 14.7273ZM77.3452 14.7273C77.3452 13.4678 77.1345 12.4048 76.7131 11.5384C76.2964 10.6719 75.7306 10.0161 75.0156 9.57102C74.3054 9.12595 73.5099 8.90341 72.6293 8.90341C71.7486 8.90341 70.9508 9.12595 70.2358 9.57102C69.5256 10.0161 68.9598 10.6719 68.5384 11.5384C68.1217 12.4048 67.9134 13.4678 67.9134 14.7273C67.9134 15.9867 68.1217 17.0497 68.5384 17.9162C68.9598 18.7827 69.5256 19.4384 70.2358 19.8835C70.9508 20.3286 71.7486 20.5511 72.6293 20.5511C73.5099 20.5511 74.3054 20.3286 75.0156 19.8835C75.7306 19.4384 76.2964 18.7827 76.7131 17.9162C77.1345 17.0497 77.3452 15.9867 77.3452 14.7273ZM93.5455 7.45455V22H91.8409L83.9148 10.5795H83.7727V22H82.0114V7.45455H83.7159L91.6705 18.9034H91.8125V7.45455H93.5455ZM96.4734 19.017V17.5682L102.865 7.45455H103.917V9.69886H103.206L98.3768 17.3409V17.4545H106.985V19.017H96.4734ZM103.32 22V18.5767V17.902V7.45455H104.996V22H103.32Z" fill="#F5F5F5"/>
<rect x="109" y="2" width="64" height="26" fill="white"/>
<path d="M122.705 12C122.548 11.5218 122.342 11.0933 122.087 10.7145C121.836 10.331 121.535 10.0043 121.185 9.73438C120.839 9.46449 120.446 9.25852 120.006 9.11648C119.565 8.97443 119.082 8.90341 118.557 8.90341C117.695 8.90341 116.911 9.12595 116.206 9.57102C115.5 10.0161 114.939 10.6719 114.523 11.5384C114.106 12.4048 113.898 13.4678 113.898 14.7273C113.898 15.9867 114.108 17.0497 114.53 17.9162C114.951 18.7827 115.522 19.4384 116.241 19.8835C116.961 20.3286 117.771 20.5511 118.67 20.5511C119.504 20.5511 120.238 20.3736 120.872 20.0185C121.511 19.6586 122.009 19.152 122.364 18.4986C122.723 17.8404 122.903 17.0663 122.903 16.1761L123.443 16.2898H119.068V14.7273H124.608V16.2898C124.608 17.4877 124.352 18.5294 123.841 19.4148C123.334 20.3002 122.634 20.9867 121.739 21.4744C120.848 21.9574 119.826 22.1989 118.67 22.1989C117.383 22.1989 116.251 21.8958 115.276 21.2898C114.305 20.6837 113.547 19.822 113.003 18.7045C112.463 17.5871 112.193 16.2614 112.193 14.7273C112.193 13.5767 112.347 12.5421 112.655 11.6236C112.967 10.7003 113.408 9.9143 113.976 9.26562C114.544 8.61695 115.216 8.11979 115.993 7.77415C116.769 7.4285 117.624 7.25568 118.557 7.25568C119.324 7.25568 120.039 7.37169 120.702 7.60369C121.369 7.83097 121.964 8.1553 122.484 8.5767C123.01 8.99337 123.448 9.4929 123.798 10.0753C124.149 10.6529 124.39 11.2945 124.523 12H122.705ZM139.897 14.7273C139.897 16.2614 139.62 17.5871 139.066 18.7045C138.512 19.822 137.752 20.6837 136.787 21.2898C135.821 21.8958 134.717 22.1989 133.477 22.1989C132.236 22.1989 131.133 21.8958 130.167 21.2898C129.201 20.6837 128.441 19.822 127.887 18.7045C127.333 17.5871 127.056 16.2614 127.056 14.7273C127.056 13.1932 127.333 11.8674 127.887 10.75C128.441 9.63258 129.201 8.77083 130.167 8.16477C131.133 7.55871 132.236 7.25568 133.477 7.25568C134.717 7.25568 135.821 7.55871 136.787 8.16477C137.752 8.77083 138.512 9.63258 139.066 10.75C139.62 11.8674 139.897 13.1932 139.897 14.7273ZM138.193 14.7273C138.193 13.4678 137.982 12.4048 137.561 11.5384C137.144 10.6719 136.578 10.0161 135.863 9.57102C135.153 9.12595 134.358 8.90341 133.477 8.90341C132.596 8.90341 131.798 9.12595 131.083 9.57102C130.373 10.0161 129.807 10.6719 129.386 11.5384C128.969 12.4048 128.761 13.4678 128.761 14.7273C128.761 15.9867 128.969 17.0497 129.386 17.9162C129.807 18.7827 130.373 19.4384 131.083 19.8835C131.798 20.3286 132.596 20.5511 133.477 20.5511C134.358 20.5511 135.153 20.3286 135.863 19.8835C136.578 19.4384 137.144 18.7827 137.561 17.9162C137.982 17.0497 138.193 15.9867 138.193 14.7273ZM155.132 14.7273C155.132 16.2614 154.855 17.5871 154.301 18.7045C153.747 19.822 152.987 20.6837 152.021 21.2898C151.055 21.8958 149.952 22.1989 148.711 22.1989C147.471 22.1989 146.368 21.8958 145.402 21.2898C144.436 20.6837 143.676 19.822 143.122 18.7045C142.568 17.5871 142.291 16.2614 142.291 14.7273C142.291 13.1932 142.568 11.8674 143.122 10.75C143.676 9.63258 144.436 8.77083 145.402 8.16477C146.368 7.55871 147.471 7.25568 148.711 7.25568C149.952 7.25568 151.055 7.55871 152.021 8.16477C152.987 8.77083 153.747 9.63258 154.301 10.75C154.855 11.8674 155.132 13.1932 155.132 14.7273ZM153.427 14.7273C153.427 13.4678 153.217 12.4048 152.795 11.5384C152.378 10.6719 151.813 10.0161 151.098 9.57102C150.387 9.12595 149.592 8.90341 148.711 8.90341C147.831 8.90341 147.033 9.12595 146.318 9.57102C145.608 10.0161 145.042 10.6719 144.62 11.5384C144.204 12.4048 143.995 13.4678 143.995 14.7273C143.995 15.9867 144.204 17.0497 144.62 17.9162C145.042 18.7827 145.608 19.4384 146.318 19.8835C147.033 20.3286 147.831 20.5511 148.711 20.5511C149.592 20.5511 150.387 20.3286 151.098 19.8835C151.813 19.4384 152.378 18.7827 152.795 17.9162C153.217 17.0497 153.427 15.9867 153.427 14.7273ZM162.582 22H158.093V7.45455H162.781C164.192 7.45455 165.399 7.74574 166.403 8.32812C167.407 8.90578 168.176 9.73674 168.711 10.821C169.246 11.9006 169.514 13.1932 169.514 14.6989C169.514 16.214 169.244 17.5185 168.704 18.6122C168.164 19.7012 167.378 20.5393 166.346 21.1264C165.314 21.7088 164.059 22 162.582 22ZM159.855 20.4375H162.468C163.671 20.4375 164.668 20.2055 165.458 19.7415C166.249 19.2775 166.839 18.617 167.227 17.7599C167.615 16.9029 167.809 15.8826 167.809 14.6989C167.809 13.5246 167.618 12.5137 167.234 11.6662C166.85 10.8139 166.278 10.1605 165.515 9.70597C164.753 9.24669 163.804 9.01705 162.667 9.01705H159.855V20.4375Z" fill="#4062DE"/>
</svg>
